<?xml version="1.0" encoding="utf-8"?>
<!-- Generator: Adobe Illustrator 23.0.1, SVG Export Plug-In . SVG Version: 6.00 Build 0)  -->
<svg version="1.1" id="Layer_1" xmlns="http://www.w3.org/2000/svg" xmlns:xlink="http://www.w3.org/1999/xlink" x="0px" y="0px"
	 viewBox="0 0 512 512" style="enable-background:new 0 0 512 512;" xml:space="preserve">
<style type="text/css">
	.st0{fill:#D9AD3D;}
	.st1{fill:#D39C22;}
	.st2{fill:#ECECF1;}
	.st3{fill:#E2E2E7;}
</style>
<path class="st0" d="M256,0C115.3,0,0,115.3,0,256s115.3,256,256,256s256-115.3,256-256S396.7,0,256,0z"/>
<path class="st1" d="M512,256c0,140.7-115.3,256-256,256V0C396.7,0,512,115.3,512,256z"/>
<g>
	<path class="st2" d="M433.6,187.9l-12,27.6C369.1,193,313,178.6,256,173.2c-50.7-5.4-102-3.6-151.8,5.1l-5.1-29.7
		c51.6-9,104.4-10.8,156.9-6C317.2,148.3,377.5,163.6,433.6,187.9z"/>
	<path class="st2" d="M408.7,275.2l-12.6,27.3c-44.4-20.4-91.8-33.6-140.1-39.3c-48.6-5.7-98.4-3.9-146.4,5.7l-6.3-29.4l0.6-0.3
		c50.1-9.9,101.4-11.7,152.1-6C308.8,238.9,360.7,253,408.7,275.2z"/>
	<path class="st2" d="M362.8,353.2l-12,27.6c-30.6-13.2-62.4-22.5-94.8-27c-39.9-6-80.7-5.4-120.9,1.8l-5.4-29.7
		c42-7.5,84.6-8.4,126.3-2.4C292.6,328.3,328.6,338.5,362.8,353.2z"/>
</g>
<path class="st3" d="M256,323.5c36.6,4.8,72.6,15,106.8,29.7l-12,27.6c-30.6-13.2-62.4-22.5-94.8-27V323.5z"/>
<path class="st3" d="M256,233.2c52.8,5.7,104.7,19.8,152.7,42l-12.6,27.3c-44.4-20.4-91.8-33.6-140.1-39.3V233.2z"/>
<path class="st3" d="M433.6,187.9l-12,27.6C369.1,193,313,178.6,256,173.2v-30.6C317.2,148.3,377.5,163.6,433.6,187.9z"/>
</svg>
